# Blender3D v249 OBJ File: 
# www.blender3d.org
mtllib ico-sphere-tex-tris.mtl
v 0.000000 -1.000000 0.000000
v 0.723600 -0.447215 0.525720
v -0.276385 -0.447215 0.850640
v -0.894425 -0.447215 0.000000
v -0.276385 -0.447215 -0.850640
v 0.723600 -0.447215 -0.525720
v 0.276385 0.447215 0.850640
v -0.723600 0.447215 0.525720
v -0.723600 0.447215 -0.525720
v 0.276385 0.447215 -0.850640
v 0.894425 0.447215 -0.000000
v 0.000000 1.000000 -0.000000
vt 0.000000 0.000000
vt 1.000000 0.000000
vt 1.000000 1.000000
vn 0.187597 -0.794651 0.577354
vn 0.607065 -0.794652 0.000000
vn -0.491122 -0.794652 0.356829
vn -0.491122 -0.794652 -0.356829
vn 0.187597 -0.794651 -0.577354
vn 0.982246 -0.187597 0.000000
vn 0.303536 -0.187589 0.934172
vn -0.794649 -0.187587 0.577359
vn -0.794649 -0.187587 -0.577359
vn 0.303536 -0.187589 -0.934172
vn 0.794649 0.187587 0.577359
vn -0.303536 0.187589 0.934172
vn -0.982246 0.187597 -0.000000
vn -0.303536 0.187589 -0.934172
vn 0.794649 0.187587 -0.577359
vn 0.491122 0.794652 0.356829
vn -0.187597 0.794651 0.577354
vn -0.607065 0.794652 -0.000000
vn -0.187597 0.794651 -0.577354
vn 0.491122 0.794652 -0.356829
usemtl Grey
s off
f 2/1/2 1/2/2 6/3/2
f 4/1/3 1/2/3 3/3/3
f 5/1/4 1/2/4 4/3/4
f 6/1/5 1/2/5 5/3/5
f 2/1/6 6/2/6 11/3/6
f 3/1/7 2/2/7 7/3/7
f 4/1/8 3/2/8 8/3/8
f 5/1/9 4/2/9 9/3/9
f 6/1/10 5/2/10 10/3/10
f 11/1/11 7/2/11 2/3/11
f 7/1/12 8/2/12 3/3/12
f 8/1/13 9/2/13 4/3/13
f 9/1/14 10/2/14 5/3/14
f 10/1/15 11/2/15 6/3/15
f 7/1/16 11/2/16 12/3/16
f 10/1/19 9/2/19 12/3/19
f 11/1/20 10/2/20 12/3/20
